<?xml version="1.0" encoding="UTF-8" standalone="no"?>
<svg xmlns:dc="http://purl.org/dc/elements/1.1/" xmlns:cc="http://creativecommons.org/ns#" xmlns:rdf="http://www.w3.org/1999/02/22-rdf-syntax-ns#"
    xmlns="http://www.w3.org/2000/svg" viewBox="0 0 468.75 468.75" height="468.75" width="468.75"
    xml:space="preserve" version="1.1" id="svg2"><metadata
     id="metadata8"><rdf:RDF><cc:Work
         rdf:about=""><dc:format>image/svg+xml</dc:format><dc:type
           rdf:resource="http://purl.org/dc/dcmitype/StillImage" /></cc:Work></rdf:RDF></metadata><defs
     id="defs6"><clipPath
       id="clipPath22"
       clipPathUnits="userSpaceOnUse"><path
         id="path24"
         d="M 0,375 375,375 375,0 0,0 0,375 Z" /></clipPath></defs><g
     transform="matrix(1.25,0,0,-1.25,0,468.75)"
     id="g10"><path
       id="path12"
       style="fill:#0038a6;fill-opacity:1;fill-rule:nonzero;stroke:none"
       d="m 0,250 375,0 0,125 -375,0 0,-125 z" /><path
       id="path14"
       style="fill:#f34249;fill-opacity:1;fill-rule:nonzero;stroke:none"
       d="m 0,125 375,0 0,125 -375,0 0,-125 z" /><path
       id="path16"
       style="fill:#0038a6;fill-opacity:1;fill-rule:nonzero;stroke:none"
       d="M 0,0 375,0 375,125 0,125 0,0 Z" /><g
       id="g18"><g
         clip-path="url(#clipPath22)"
         id="g20"><g
           transform="translate(168.2583,300.8145)"
           id="g26"><path
             id="path28"
             style="fill:#ffcc33;fill-opacity:1;fill-rule:nonzero;stroke:none"
             d="m 0,0 c -8.343,3.304 -12.449,8.302 -12.891,15.356 -0.282,4.244 3.949,9.218 8.485,9.332 14.16,0.385 18.895,-22.704 18.811,-28.338 -0.601,0 -3.546,0.059 -4.279,0.031 C 9.482,-0.061 10.036,4.3 5.51,7.977 0.987,11.652 -1.014,8.852 -1.58,6.588 -2.143,4.33 0.507,-0.228 0,0" /></g><g
           transform="translate(206.0791,300.8145)"
           id="g30"><path
             id="path32"
             style="fill:#ffcc33;fill-opacity:1;fill-rule:nonzero;stroke:none"
             d="m 0,0 c 8.343,3.304 12.453,8.302 12.892,15.356 0.283,4.244 -3.949,9.22 -8.483,9.332 -14.161,0.388 -18.897,-22.702 -18.812,-28.335 0.598,0 3.546,0.06 4.276,0.03 0.647,3.559 0.089,7.92 4.617,11.597 4.522,3.675 6.526,0.874 7.091,-1.388 C 2.145,4.33 -0.508,-0.228 0,0" /></g><g
           transform="translate(187.0513,352.4351)"
           id="g34"><path
             id="path36"
             style="fill:#ffcc33;fill-opacity:1;fill-rule:nonzero;stroke:none"
             d="m 0,0 c -9.623,-10.005 -12.207,-20.181 -5.792,-36.482 2.203,-5.446 3.134,-11.977 3.043,-18.768 0.931,-0.022 4.897,0.024 5.836,0.09 -0.082,6.707 1.03,13.766 3.221,19.302 C 13.738,-19.21 8.384,-7.919 0.255,0 L 0.127,0 0,0 Z" /></g><g
           transform="translate(181.9956,293.3394)"
           id="g38"><path
             id="path40"
             style="fill:#ffcc33;fill-opacity:1;fill-rule:nonzero;stroke:none"
             d="m 0,0 c -1.967,-5.257 -5.447,-7.248 -8.29,-8.638 4.332,-2.049 9.338,0.176 10.281,1.238 -0.115,-1.484 -0.232,-5.488 0.309,-8.194 0.368,-2.182 1.297,-3.44 2.861,-5.18 1.622,1.7 2.628,3.072 3.169,5.004 0.656,2.806 -0.038,6.785 0.02,8.27 0.752,-0.923 6.744,-3.147 10.686,-1.213 -3.671,1.597 -7.226,3.462 -8.387,8.811 C 10.22,0.071 1.083,0.078 0,0.078 L 0,0 Z" /></g><path
           id="path42"
           style="fill:#ffcc33;fill-opacity:1;fill-rule:nonzero;stroke:none"
           d="m 175.89,297.026 22.797,0 0,-3.391 -22.797,0 0,3.391 z" /><g
           transform="translate(44.3237,300.8149)"
           id="g44"><path
             id="path46"
             style="fill:#ffcc33;fill-opacity:1;fill-rule:nonzero;stroke:none"
             d="m 0,0 c -8.343,3.303 -12.449,8.301 -12.891,15.356 -0.282,4.243 3.949,9.218 8.485,9.332 14.16,0.385 18.895,-22.705 18.811,-28.338 -0.601,0 -3.546,0.059 -4.279,0.03 C 9.482,-0.062 10.036,4.3 5.51,7.977 0.987,11.652 -1.014,8.851 -1.58,6.588 -2.143,4.329 0.507,-0.229 0,0" /></g><g
           transform="translate(82.1445,300.8149)"
           id="g48"><path
             id="path50"
             style="fill:#ffcc33;fill-opacity:1;fill-rule:nonzero;stroke:none"
             d="m 0,0 c 8.342,3.303 12.453,8.301 12.892,15.356 0.283,4.243 -3.949,9.219 -8.483,9.332 -14.16,0.387 -18.897,-22.703 -18.812,-28.336 0.598,0 3.546,0.061 4.276,0.03 0.646,3.559 0.089,7.92 4.617,11.597 4.522,3.676 6.526,0.874 7.091,-1.388 C 2.145,4.329 -0.508,-0.229 0,0" /></g><g
           transform="translate(63.1167,352.4351)"
           id="g52"><path
             id="path54"
             style="fill:#ffcc33;fill-opacity:1;fill-rule:nonzero;stroke:none"
             d="m 0,0 c -9.623,-10.005 -12.207,-20.181 -5.792,-36.482 2.203,-5.447 3.134,-11.978 3.043,-18.769 0.931,-0.022 4.896,0.024 5.836,0.09 -0.081,6.707 1.03,13.767 3.221,19.303 C 13.738,-19.21 8.384,-7.919 0.255,0 L 0.127,0 0,0 Z" /></g><g
           transform="translate(58.061,293.3398)"
           id="g56"><path
             id="path58"
             style="fill:#ffcc33;fill-opacity:1;fill-rule:nonzero;stroke:none"
             d="m 0,0 c -1.967,-5.257 -5.447,-7.249 -8.29,-8.639 4.332,-2.049 9.338,0.176 10.281,1.239 -0.115,-1.484 -0.232,-5.489 0.309,-8.195 0.368,-2.181 1.297,-3.44 2.861,-5.18 1.622,1.701 2.628,3.072 3.169,5.004 0.656,2.805 -0.038,6.786 0.02,8.271 0.753,-0.924 6.744,-3.148 10.686,-1.214 -3.671,1.597 -7.226,3.461 -8.387,8.811 C 10.22,0.07 1.083,0.077 0,0.077 L 0,0 Z" /></g><path
           id="path60"
           style="fill:#ffcc33;fill-opacity:1;fill-rule:nonzero;stroke:none"
           d="m 51.956,297.026 22.797,0 0,-3.391 -22.797,0 0,3.391 z" /><g
           transform="translate(292.1934,300.8149)"
           id="g62"><path
             id="path64"
             style="fill:#ffcc33;fill-opacity:1;fill-rule:nonzero;stroke:none"
             d="m 0,0 c -8.344,3.303 -12.45,8.301 -12.891,15.356 -0.283,4.243 3.949,9.218 8.484,9.332 14.161,0.385 18.895,-22.705 18.811,-28.338 -0.6,0 -3.546,0.059 -4.278,0.03 C 9.481,-0.062 10.035,4.3 5.51,7.977 0.986,11.652 -1.015,8.851 -1.58,6.588 -2.144,4.329 0.507,-0.229 0,0" /></g><g
           transform="translate(330.0137,300.8149)"
           id="g66"><path
             id="path68"
             style="fill:#ffcc33;fill-opacity:1;fill-rule:nonzero;stroke:none"
             d="m 0,0 c 8.343,3.303 12.453,8.301 12.892,15.356 0.283,4.243 -3.949,9.219 -8.483,9.332 -14.161,0.387 -18.897,-22.703 -18.812,-28.336 0.598,0 3.546,0.061 4.276,0.03 0.647,3.559 0.09,7.92 4.617,11.597 4.522,3.676 6.526,0.874 7.091,-1.388 C 2.145,4.329 -0.508,-0.229 0,0" /></g><g
           transform="translate(310.9854,352.4351)"
           id="g70"><path
             id="path72"
             style="fill:#ffcc33;fill-opacity:1;fill-rule:nonzero;stroke:none"
             d="m 0,0 c -9.623,-10.005 -12.206,-20.181 -5.791,-36.482 2.202,-5.447 3.133,-11.978 3.043,-18.769 0.931,-0.022 4.896,0.024 5.836,0.09 -0.081,6.707 1.029,13.767 3.221,19.303 C 13.738,-19.21 8.385,-7.919 0.256,0 L 0.128,0 0,0 Z" /></g><g
           transform="translate(305.9297,293.3398)"
           id="g74"><path
             id="path76"
             style="fill:#ffcc33;fill-opacity:1;fill-rule:nonzero;stroke:none"
             d="m 0,0 c -1.967,-5.257 -5.446,-7.249 -8.289,-8.639 4.332,-2.049 9.338,0.176 10.281,1.239 -0.116,-1.484 -0.232,-5.489 0.309,-8.195 0.367,-2.181 1.296,-3.44 2.861,-5.18 1.621,1.701 2.627,3.072 3.168,5.004 0.656,2.805 -0.037,6.786 0.021,8.271 0.752,-0.924 6.744,-3.148 10.685,-1.214 -3.671,1.597 -7.225,3.461 -8.387,8.811 C 10.221,0.07 1.084,0.077 0,0.077 L 0,0 Z" /></g><path
           id="path78"
           style="fill:#ffcc33;fill-opacity:1;fill-rule:nonzero;stroke:none"
           d="m 299.824,297.026 22.798,0 0,-3.391 -22.798,0 0,3.391 z" /><g
           transform="translate(145.5977,169.666)"
           id="g80"><path
             id="path82"
             style="fill:#ffffff;fill-opacity:1;fill-rule:nonzero;stroke:none"
             d="M 0,0 39.757,16.197 23.56,-23.562 41.23,-11.781 58.9,-23.562 42.702,16.197 82.461,0 70.681,17.67 82.461,35.34 42.702,19.143 58.9,58.901 41.23,47.121 23.56,58.901 39.757,19.143 0,35.34 11.78,17.67 0,0 Z" /></g><g
           transform="translate(158.3276,30.3604)"
           id="g84"><path
             id="path86"
             style="fill:#ffcc33;fill-opacity:1;fill-rule:nonzero;stroke:none"
             d="m 0,0 c -0.098,12.839 -1.904,26.073 -7.377,37.345 0.678,0.203 1.397,0.311 2.143,0.311 4.127,0 7.473,-3.344 7.473,-7.473 0,-1.022 -0.205,-1.993 -0.574,-2.879 0.958,0.447 2.029,0.698 3.159,0.698 4.127,0 7.475,-3.347 7.475,-7.476 0,-4.127 -3.348,-7.474 -7.475,-7.474 -0.537,0 -1.058,0.058 -1.563,0.164 0.561,-5.047 3.148,-8.865 6.258,-8.865 2.398,0 4.486,2.273 5.574,5.631 1.085,-3.358 3.176,-5.631 5.574,-5.631 3.343,0 6.084,4.414 6.35,10.021 -1.205,-0.832 -2.664,-1.32 -4.24,-1.32 -4.128,0 -7.474,3.347 -7.474,7.474 0,4.109 3.316,7.444 7.417,7.475 -0.63,1.096 -0.99,2.366 -0.99,3.721 0,4.129 3.345,7.476 7.474,7.476 4.127,0 7.474,-3.347 7.474,-7.476 0,-1.354 -0.361,-2.625 -0.99,-3.721 4.102,-0.031 7.418,-3.366 7.418,-7.475 0,-4.127 -3.349,-7.474 -7.474,-7.474 -1.576,0 -3.036,0.488 -4.239,1.32 0.266,-5.607 3.007,-10.021 6.348,-10.021 2.398,0 4.488,2.273 5.574,5.631 1.088,-3.358 3.177,-5.631 5.575,-5.631 3.11,0 5.696,3.818 6.257,8.865 -0.505,-0.106 -1.027,-0.164 -1.563,-0.164 -4.127,0 -7.474,3.347 -7.474,7.474 0,4.129 3.347,7.476 7.474,7.476 1.13,0 2.202,-0.251 3.161,-0.698 -0.37,0.886 -0.577,1.857 -0.577,2.879 0,4.129 3.348,7.473 7.476,7.473 0.745,0 1.464,-0.108 2.141,-0.311 C 60.31,26.073 58.505,12.839 58.409,0 L 0,0 Z m 0.005,-2.972 58.4,0 0,-13.67 -58.4,0 0,13.67 z" /></g><g
           transform="translate(48.3276,71.4424)"
           id="g88"><path
             id="path90"
             style="fill:#ffcc33;fill-opacity:1;fill-rule:nonzero;stroke:none"
             d="m 0,0 c -0.098,12.839 -1.904,26.073 -7.377,37.345 0.678,0.203 1.397,0.311 2.143,0.311 4.127,0 7.473,-3.344 7.473,-7.473 0,-1.022 -0.205,-1.993 -0.574,-2.879 0.958,0.447 2.029,0.698 3.159,0.698 4.127,0 7.475,-3.347 7.475,-7.476 0,-4.127 -3.348,-7.474 -7.475,-7.474 -0.537,0 -1.058,0.058 -1.563,0.164 0.561,-5.047 3.148,-8.865 6.258,-8.865 2.398,0 4.486,2.273 5.574,5.631 1.085,-3.358 3.176,-5.631 5.574,-5.631 3.343,0 6.084,4.414 6.35,10.021 -1.205,-0.832 -2.664,-1.32 -4.24,-1.32 -4.128,0 -7.474,3.347 -7.474,7.474 0,4.109 3.316,7.444 7.417,7.475 -0.63,1.096 -0.99,2.366 -0.99,3.721 0,4.129 3.345,7.476 7.474,7.476 4.127,0 7.474,-3.347 7.474,-7.476 0,-1.354 -0.361,-2.625 -0.99,-3.721 4.102,-0.031 7.418,-3.366 7.418,-7.475 0,-4.127 -3.349,-7.474 -7.474,-7.474 -1.576,0 -3.036,0.488 -4.239,1.32 0.266,-5.607 3.007,-10.021 6.348,-10.021 2.398,0 4.488,2.273 5.574,5.631 1.088,-3.358 3.177,-5.631 5.575,-5.631 3.11,0 5.696,3.818 6.257,8.865 -0.505,-0.106 -1.027,-0.164 -1.563,-0.164 -4.127,0 -7.474,3.347 -7.474,7.474 0,4.129 3.347,7.476 7.474,7.476 1.13,0 2.202,-0.251 3.161,-0.698 -0.37,0.886 -0.577,1.857 -0.577,2.879 0,4.129 3.348,7.473 7.476,7.473 0.745,0 1.464,-0.108 2.141,-0.311 C 60.31,26.073 58.505,12.839 58.409,0 L 0,0 Z m 0.005,-2.972 58.4,0 0,-13.67 -58.4,0 0,13.67 z" /></g><g
           transform="translate(268.3281,71.4424)"
           id="g92"><path
             id="path94"
             style="fill:#ffcc33;fill-opacity:1;fill-rule:nonzero;stroke:none"
             d="m 0,0 c -0.099,12.839 -1.904,26.073 -7.377,37.345 0.678,0.203 1.397,0.311 2.143,0.311 4.127,0 7.472,-3.344 7.472,-7.473 0,-1.022 -0.205,-1.993 -0.574,-2.879 0.959,0.447 2.029,0.698 3.159,0.698 4.128,0 7.476,-3.347 7.476,-7.476 0,-4.127 -3.348,-7.474 -7.476,-7.474 -0.536,0 -1.057,0.058 -1.562,0.164 0.561,-5.047 3.147,-8.865 6.258,-8.865 2.397,0 4.486,2.273 5.573,5.631 1.086,-3.358 3.176,-5.631 5.575,-5.631 3.343,0 6.083,4.414 6.35,10.021 -1.206,-0.832 -2.665,-1.32 -4.24,-1.32 -4.129,0 -7.474,3.347 -7.474,7.474 0,4.109 3.315,7.444 7.417,7.475 -0.63,1.096 -0.991,2.366 -0.991,3.721 0,4.129 3.345,7.476 7.474,7.476 4.127,0 7.475,-3.347 7.475,-7.476 0,-1.354 -0.362,-2.625 -0.99,-3.721 4.101,-0.031 7.417,-3.366 7.417,-7.475 0,-4.127 -3.348,-7.474 -7.473,-7.474 -1.576,0 -3.036,0.488 -4.239,1.32 0.265,-5.607 3.006,-10.021 6.347,-10.021 2.399,0 4.489,2.273 5.574,5.631 1.088,-3.358 3.177,-5.631 5.576,-5.631 3.109,0 5.696,3.818 6.256,8.865 -0.504,-0.106 -1.027,-0.164 -1.562,-0.164 -4.128,0 -7.475,3.347 -7.475,7.474 0,4.129 3.347,7.476 7.475,7.476 1.13,0 2.201,-0.251 3.16,-0.698 -0.37,0.886 -0.576,1.857 -0.576,2.879 0,4.129 3.348,7.473 7.476,7.473 0.745,0 1.463,-0.108 2.14,-0.311 C 60.31,26.073 58.505,12.839 58.408,0 L 0,0 Z m 0.004,-2.972 58.4,0 0,-13.67 -58.4,0 0,13.67 z" /></g></g></g></g></svg>