<svg width="18" height="20" viewBox="0 0 18 20" fill="none" xmlns="http://www.w3.org/2000/svg">
    <path fill-rule="evenodd" clip-rule="evenodd" d="M2.75001 0.399902C1.42452 0.399902 0.350006 1.47442 0.350006 2.7999V19.5999L4.55001 17.1999L8.75001 19.5999L12.95 17.1999L17.15 19.5999V2.7999C17.15 1.47442 16.0755 0.399902 14.75 0.399902H2.75001ZM5.75001 3.9999C4.75589 3.9999 3.95001 4.80579 3.95001 5.7999C3.95001 6.79402 4.75589 7.5999 5.75001 7.5999C6.74412 7.5999 7.55001 6.79402 7.55001 5.7999C7.55001 4.80579 6.74412 3.9999 5.75001 3.9999ZM13.1985 4.35137C12.7299 3.88275 11.9701 3.88275 11.5015 4.35137L4.30148 11.5514C3.83285 12.02 3.83285 12.7798 4.30148 13.2484C4.77011 13.7171 5.5299 13.7171 5.99853 13.2484L13.1985 6.04843C13.6672 5.5798 13.6672 4.82 13.1985 4.35137ZM11.75 9.9999C10.7559 9.9999 9.95001 10.8058 9.95001 11.7999C9.95001 12.794 10.7559 13.5999 11.75 13.5999C12.7441 13.5999 13.55 12.794 13.55 11.7999C13.55 10.8058 12.7441 9.9999 11.75 9.9999Z" fill="#333333"/>
</svg>
