<svg width="18" height="20" viewBox="0 0 18 20" fill="none" xmlns="http://www.w3.org/2000/svg">
    <path fill-rule="evenodd" clip-rule="evenodd" d="M3.00001 0.399902C1.67452 0.399902 0.600006 1.47442 0.600006 2.7999V19.5999L4.80001 17.1999L9.00001 19.5999L13.2 17.1999L17.4 19.5999V2.7999C17.4 1.47442 16.3255 0.399902 15 0.399902H3.00001ZM6.00001 3.9999C5.00589 3.9999 4.20001 4.80579 4.20001 5.7999C4.20001 6.79402 5.00589 7.5999 6.00001 7.5999C6.99412 7.5999 7.80001 6.79402 7.80001 5.7999C7.80001 4.80579 6.99412 3.9999 6.00001 3.9999ZM13.4485 4.35137C12.9799 3.88275 12.2201 3.88275 11.7515 4.35137L4.55148 11.5514C4.08285 12.02 4.08285 12.7798 4.55148 13.2484C5.02011 13.7171 5.7799 13.7171 6.24853 13.2484L13.4485 6.04843C13.9172 5.5798 13.9172 4.82 13.4485 4.35137ZM12 9.9999C11.0059 9.9999 10.2 10.8058 10.2 11.7999C10.2 12.794 11.0059 13.5999 12 13.5999C12.9941 13.5999 13.8 12.794 13.8 11.7999C13.8 10.8058 12.9941 9.9999 12 9.9999Z" fill="white"/>
</svg>
