<svg width="46" height="42" viewBox="0 0 46 42" fill="none" xmlns="http://www.w3.org/2000/svg">
    <path d="M1.52539 13.7499C1.52539 11.1313 3.64818 9.00855 6.26677 9.00855H8.47064C10.0559 9.00855 11.5363 8.21626 12.4157 6.89722L14.342 4.00782C15.2213 2.68877 16.7017 1.89648 18.287 1.89648H27.4362C29.0215 1.89648 30.5019 2.68877 31.3812 4.00782L33.3075 6.89722C34.1869 8.21626 35.6673 9.00855 37.2526 9.00855H39.4564C42.075 9.00855 44.1978 11.1313 44.1978 13.7499V35.0861C44.1978 37.7047 42.075 39.8275 39.4564 39.8275H6.26677C3.64818 39.8275 1.52539 37.7047 1.52539 35.0861V13.7499Z" stroke="#7E7E7E" stroke-width="3" stroke-linecap="round" stroke-linejoin="round"/>
    <path d="M29.9737 23.2327C29.9737 27.1606 26.7895 30.3448 22.8616 30.3448C18.9337 30.3448 15.7495 27.1606 15.7495 23.2327C15.7495 19.3048 18.9337 16.1206 22.8616 16.1206C26.7895 16.1206 29.9737 19.3048 29.9737 23.2327Z" stroke="#7E7E7E" stroke-width="3" stroke-linecap="round" stroke-linejoin="round"/>
</svg>
