<svg width="16" height="14" viewBox="0 0 16 14" fill="none" xmlns="http://www.w3.org/2000/svg">
    <path d="M14.8917 0.0817871H1.10828C0.497208 0.0817871 0 0.578995 0 1.19007V10.5413C0 11.1524 0.497208 11.6496 1.10828 11.6496H9.14562L8.90293 13.1296C8.85727 13.4082 8.94942 13.6606 9.14948 13.8046C9.34948 13.9486 9.61787 13.9564 9.86771 13.8247L11.6018 12.912C11.6501 12.8871 11.7835 12.8871 11.8318 12.912L13.5659 13.8247C13.6845 13.8871 13.8074 13.9182 13.9251 13.9182C14.0553 13.9182 14.1792 13.8802 14.2842 13.8045C14.4842 13.6605 14.5763 13.4081 14.5307 13.1295L14.2881 11.6495H14.8918C15.5029 11.6495 16.0001 11.1523 16.0001 10.5413V1.19007C16 0.578931 15.5028 0.0817871 14.8917 0.0817871ZM11.7168 9.74994C10.6518 9.74994 9.78525 8.88339 9.78525 7.81836C9.78525 6.75333 10.6518 5.88678 11.7168 5.88678C12.7819 5.88678 13.6484 6.75333 13.6484 7.81836C13.6484 8.88339 12.7819 9.74994 11.7168 9.74994ZM12.2743 12.0714C11.9513 11.9013 11.4823 11.9013 11.1593 12.0714L9.93338 12.7167L10.3231 10.3393C10.7365 10.5687 11.2116 10.6998 11.7169 10.6998C12.2222 10.6998 12.6973 10.5687 13.1107 10.3393L13.2625 11.2661C13.2629 11.2677 13.263 11.2693 13.2634 11.2708L13.5004 12.7167L12.2743 12.0714ZM15.05 10.5413C15.05 10.6271 14.9775 10.6996 14.8917 10.6996H14.1323L13.9589 9.64146C13.9582 9.63728 13.957 9.63329 13.9562 9.62911C14.3574 9.13399 14.5984 8.50385 14.5984 7.81836C14.5984 6.22946 13.3058 4.93683 11.7169 4.93683C10.128 4.93683 8.83536 6.22946 8.83536 7.81836C8.83536 8.50385 9.0764 9.13386 9.4776 9.62911C9.47677 9.63323 9.47563 9.63728 9.47493 9.64139L9.30135 10.7005C9.29603 10.7003 9.2909 10.6996 9.28558 10.6996H1.10828C1.02247 10.6996 0.949957 10.6271 0.949957 10.5413V1.19007C0.949957 1.10426 1.02247 1.03174 1.10828 1.03174H14.8917C14.9775 1.03174 15.05 1.10426 15.05 1.19007V10.5413Z" fill="#333333"/>
    <path d="M13.2128 2.81567H2.44666C2.18428 2.81567 1.97168 3.02827 1.97168 3.29065C1.97168 3.55303 2.18428 3.76563 2.44666 3.76563H13.2128C13.4752 3.76563 13.6878 3.55303 13.6878 3.29065C13.6878 3.02827 13.4752 2.81567 13.2128 2.81567Z" fill="#333333"/>
    <path d="M7.00645 5.39111H2.44666C2.18428 5.39111 1.97168 5.60371 1.97168 5.86609C1.97168 6.12847 2.18428 6.34107 2.44666 6.34107H7.00645C7.26883 6.34107 7.48143 6.12847 7.48143 5.86609C7.48143 5.60371 7.26883 5.39111 7.00645 5.39111Z" fill="#333333"/>
</svg>
