<svg width="21" height="21" viewBox="0 0 21 21" fill="none" xmlns="http://www.w3.org/2000/svg">
    <path fill-rule="evenodd" clip-rule="evenodd" d="M1.08288 1.08337C1.72725 0.439006 2.77197 0.439006 3.41634 1.08337L10.4996 8.16665L17.5829 1.08337C18.2272 0.439006 19.272 0.439006 19.9163 1.08337C20.5607 1.72774 20.5607 2.77246 19.9163 3.41682L12.8331 10.5001L19.9163 17.5834C20.5607 18.2277 20.5607 19.2725 19.9163 19.9168C19.272 20.5612 18.2272 20.5612 17.5829 19.9168L10.4996 12.8335L3.41634 19.9168C2.77197 20.5612 1.72725 20.5612 1.08288 19.9168C0.438518 19.2725 0.438518 18.2277 1.08288 17.5834L8.16616 10.5001L1.08288 3.41682C0.438518 2.77246 0.438518 1.72774 1.08288 1.08337Z" fill="#111827"/>
</svg>
