<svg width="25" height="25" viewBox="0 0 25 25" fill="none" xmlns="http://www.w3.org/2000/svg">
    <path fill-rule="evenodd" clip-rule="evenodd" d="M12.5 0.25C13.4665 0.25 14.25 1.0335 14.25 2V10.75H23C23.9665 10.75 24.75 11.5335 24.75 12.5C24.75 13.4665 23.9665 14.25 23 14.25H14.25V23C14.25 23.9665 13.4665 24.75 12.5 24.75C11.5335 24.75 10.75 23.9665 10.75 23V14.25H2C1.0335 14.25 0.25 13.4665 0.25 12.5C0.25 11.5335 1.0335 10.75 2 10.75L10.75 10.75V2C10.75 1.0335 11.5335 0.25 12.5 0.25Z" fill="white"/>
</svg>
