<svg width="21" height="25" viewBox="0 0 21 25" fill="none" xmlns="http://www.w3.org/2000/svg">
    <path fill-rule="evenodd" clip-rule="evenodd" d="M9.12472 0.899902C8.57236 0.899902 8.06741 1.21021 7.82038 1.70144L6.76516 3.7999H1.83329C1.0279 3.7999 0.375 4.44909 0.375 5.2499C0.375 6.05072 1.0279 6.6999 1.83329 6.6999L1.83329 21.1999C1.83329 22.8015 3.13908 24.0999 4.74986 24.0999H16.4161C18.0269 24.0999 19.3327 22.8015 19.3327 21.1999V6.6999C20.1381 6.6999 20.791 6.05072 20.791 5.2499C20.791 4.44909 20.1381 3.7999 19.3327 3.7999H14.4008L13.3456 1.70144C13.0986 1.21021 12.5936 0.899902 12.0413 0.899902H9.12472ZM6.20814 9.5999C6.20814 8.79909 6.86104 8.1499 7.66643 8.1499C8.47182 8.1499 9.12471 8.79909 9.12471 9.5999V18.2999C9.12471 19.1007 8.47182 19.7499 7.66643 19.7499C6.86104 19.7499 6.20814 19.1007 6.20814 18.2999V9.5999ZM13.4996 8.1499C12.6942 8.1499 12.0413 8.79909 12.0413 9.5999V18.2999C12.0413 19.1007 12.6942 19.7499 13.4996 19.7499C14.305 19.7499 14.9579 19.1007 14.9579 18.2999V9.5999C14.9579 8.79909 14.305 8.1499 13.4996 8.1499Z" fill="#B7323B"/>
</svg>
