<svg width="25" height="29" viewBox="0 0 25 29" fill="none" xmlns="http://www.w3.org/2000/svg">
    <path fill-rule="evenodd" clip-rule="evenodd" d="M0.25 26.75C0.25 25.7835 1.0335 25 2 25H23C23.9665 25 24.75 25.7835 24.75 26.75C24.75 27.7165 23.9665 28.5 23 28.5H2C1.0335 28.5 0.25 27.7165 0.25 26.75ZM6.01256 13.2626C6.69598 12.5791 7.80402 12.5791 8.48744 13.2626L10.75 15.5251L10.75 2.25C10.75 1.2835 11.5335 0.5 12.5 0.5C13.4665 0.5 14.25 1.2835 14.25 2.25L14.25 15.5251L16.5126 13.2626C17.196 12.5791 18.304 12.5791 18.9874 13.2626C19.6709 13.946 19.6709 15.054 18.9874 15.7374L13.7374 20.9874C13.4092 21.3156 12.9641 21.5 12.5 21.5C12.0359 21.5 11.5908 21.3156 11.2626 20.9874L6.01256 15.7374C5.32914 15.054 5.32915 13.946 6.01256 13.2626Z" fill="#333333"/>
</svg>
