<svg width="57" height="57" viewBox="0 0 57 57" fill="none" xmlns="http://www.w3.org/2000/svg">
    <path d="M1.875 1.875H7.79167L8.975 7.79167M13.7083 31.4583H43.2917L55.125 7.79167H8.975M13.7083 31.4583L8.975 7.79167M13.7083 31.4583L6.92519 38.2415C5.06155 40.1051 6.38146 43.2917 9.01705 43.2917H43.2917M43.2917 43.2917C40.024 43.2917 37.375 45.9406 37.375 49.2083C37.375 52.476 40.024 55.125 43.2917 55.125C46.5594 55.125 49.2083 52.476 49.2083 49.2083C49.2083 45.9406 46.5594 43.2917 43.2917 43.2917ZM19.625 49.2083C19.625 52.476 16.976 55.125 13.7083 55.125C10.4406 55.125 7.79167 52.476 7.79167 49.2083C7.79167 45.9406 10.4406 43.2917 13.7083 43.2917C16.976 43.2917 19.625 45.9406 19.625 49.2083Z" stroke="#333333" stroke-width="2" stroke-linecap="round" stroke-linejoin="round"/>
</svg>
