<svg width="56" height="56" viewBox="0 0 56 56" fill="none" xmlns="http://www.w3.org/2000/svg">
    <path fill-rule="evenodd" clip-rule="evenodd" d="M56 28C56 43.464 43.464 56 28 56C12.536 56 0 43.464 0 28C0 12.536 12.536 0 28 0C43.464 0 56 12.536 56 28ZM31.5 42C31.5 43.933 29.933 45.5 28 45.5C26.067 45.5 24.5 43.933 24.5 42C24.5 40.067 26.067 38.5 28 38.5C29.933 38.5 31.5 40.067 31.5 42ZM28 10.5C26.067 10.5 24.5 12.067 24.5 14V28C24.5 29.933 26.067 31.5 28 31.5C29.933 31.5 31.5 29.933 31.5 28V14C31.5 12.067 29.933 10.5 28 10.5Z" fill="#333333"/>
</svg>
