<?xml version="1.0" encoding="UTF-8" standalone="no" ?>
<!DOCTYPE svg PUBLIC "-//W3C//DTD SVG 1.1//EN" "http://www.w3.org/Graphics/SVG/1.1/DTD/svg11.dtd">
<svg xmlns="http://www.w3.org/2000/svg" xmlns:xlink="http://www.w3.org/1999/xlink" version="1.1" width="1080" height="1080" viewBox="0 0 1080 1080" xml:space="preserve">
<desc>Created with Fabric.js 5.2.4</desc>
    <defs>
</defs>
    <g transform="matrix(1 0 0 1 540 540)" id="64368ccd-a144-4126-9d6a-b173722ffe14"  >
<rect style="stroke: none; stroke-width: 1; stroke-dasharray: none; stroke-linecap: butt; stroke-dashoffset: 0; stroke-linejoin: miter; stroke-miterlimit: 4; fill: rgb(255,255,255); fill-rule: nonzero; opacity: 1; visibility: hidden;" vector-effect="non-scaling-stroke"  x="-540" y="-540" rx="0" ry="0" width="1080" height="1080" />
</g>
    <g transform="matrix(1 0 0 1 540 540)" id="e19e9e7b-0252-4624-8f3b-26d52aa9904e"  >
</g>
    <g transform="matrix(54 0 0 54 540 540)"  >
<path style="stroke: rgb(183,50,59); stroke-width: 1; stroke-dasharray: none; stroke-linecap: round; stroke-dashoffset: 0; stroke-linejoin: round; stroke-miterlimit: 4; fill: rgb(183,50,59); fill-rule: nonzero; opacity: 1;"  transform=" translate(-10, -8.68)" d="M 2.31802 2.31802 C 0.56066 4.07538 0.56066 6.92462 2.31802 8.68198 L 10.0001 16.364 L 17.682 8.68198 C 19.4393 6.92462 19.4393 4.07538 17.682 2.31802 C 15.9246 0.56066 13.0754 0.56066 11.318 2.31802 L 10.0001 3.63609 L 8.68198 2.31802 C 6.92462 0.56066 4.07538 0.56066 2.31802 2.31802 Z" stroke-linecap="round" />
</g>
    <g transform="matrix(NaN NaN NaN NaN 0 0)"  >
<g style=""   >
</g>
</g>
    <g transform="matrix(NaN NaN NaN NaN 0 0)"  >
<g style=""   >
</g>
</g>
    <g transform="matrix(NaN NaN NaN NaN 0 0)"  >
<g style=""   >
</g>
</g>
    <g transform="matrix(NaN NaN NaN NaN 0 0)"  >
<g style=""   >
</g>
</g>
    <g transform="matrix(NaN NaN NaN NaN 0 0)"  >
<g style=""   >
</g>
</g>
    <g transform="matrix(NaN NaN NaN NaN 0 0)"  >
<g style=""   >
</g>
</g>
</svg>