<svg width="16" height="20" viewBox="0 0 16 20" fill="none" xmlns="http://www.w3.org/2000/svg">
    <path fill-rule="evenodd" clip-rule="evenodd" d="M3.19981 0.399902C1.87432 0.399902 0.799805 1.47442 0.799805 2.7999V17.1999C0.799805 18.5254 1.87432 19.5999 3.1998 19.5999H12.7998C14.1253 19.5999 15.1998 18.5254 15.1998 17.1999V6.89696C15.1998 6.26044 14.947 5.64999 14.4969 5.1999L10.3998 1.10285C9.94972 0.652759 9.33927 0.399902 8.70275 0.399902H3.19981ZM9.19981 7.5999C9.19981 6.93716 8.66255 6.3999 7.99981 6.3999C7.33706 6.3999 6.79981 6.93716 6.79981 7.5999V11.9028L5.24833 10.3514C4.7797 9.88274 4.01991 9.88274 3.55128 10.3514C3.08265 10.82 3.08265 11.5798 3.55128 12.0484L7.15128 15.6484C7.61991 16.1171 8.3797 16.1171 8.84833 15.6484L12.4483 12.0484C12.917 11.5798 12.917 10.82 12.4483 10.3514C11.9797 9.88274 11.2199 9.88274 10.7513 10.3514L9.19981 11.9028V7.5999Z" fill="#999999"/>
</svg>
