<svg width="19" height="20" viewBox="0 0 19 20" fill="none" xmlns="http://www.w3.org/2000/svg">
    <path d="M7.89725 2.66998C8.30599 0.986309 10.7005 0.98631 11.1092 2.66998C11.3733 3.75761 12.6194 4.27375 13.5751 3.69139C15.0547 2.78988 16.7478 4.48304 15.8463 5.9626C15.264 6.91837 15.7801 8.16446 16.8677 8.4285C18.5514 8.83724 18.5514 11.2317 16.8677 11.6405C15.7801 11.9045 15.264 13.1506 15.8463 14.1064C16.7478 15.5859 15.0547 17.2791 13.5751 16.3776C12.6194 15.7952 11.3733 16.3114 11.1092 17.399C10.7005 19.0827 8.30599 19.0827 7.89725 17.399C7.63321 16.3114 6.38712 15.7952 5.43135 16.3776C3.95179 17.2791 2.25863 15.5859 3.16014 14.1064C3.7425 13.1506 3.22636 11.9045 2.13873 11.6405C0.45506 11.2317 0.455059 8.83724 2.13873 8.4285C3.22636 8.16446 3.7425 6.91837 3.16014 5.9626C2.25863 4.48304 3.95179 2.78988 5.43135 3.69139C6.38712 4.27375 7.63321 3.75761 7.89725 2.66998Z" stroke="#333333" stroke-width="0.958584" stroke-linecap="round" stroke-linejoin="round"/>
    <path d="M12.379 10.0345C12.379 11.6227 11.0915 12.9102 9.50324 12.9102C7.915 12.9102 6.62748 11.6227 6.62748 10.0345C6.62748 8.44625 7.915 7.15873 9.50324 7.15873C11.0915 7.15873 12.379 8.44625 12.379 10.0345Z" stroke="#333333" stroke-width="0.958584" stroke-linecap="round" stroke-linejoin="round"/>
</svg>
