<svg width="16" height="14" viewBox="0 0 16 14" fill="none" xmlns="http://www.w3.org/2000/svg">
    <path d="M15 0C15.5523 0 16 0.447716 16 1V13C16 13.5523 15.5523 14 15 14C14.4477 14 14 13.5523 14 13V1C14 0.447715 14.4477 0 15 0Z" fill="#333333"/>
    <path d="M4.7071 9.29289C5.09762 9.68342 5.09762 10.3166 4.7071 10.7071C4.31658 11.0976 3.68341 11.0976 3.29288 10.7071L0.292882 7.70711C0.105346 7.51957 -1.14441e-05 7.26522 -1.14441e-05 7C-1.14441e-05 6.73478 0.105346 6.48043 0.292882 6.29289L3.29288 3.29289C3.68341 2.90237 4.31657 2.90237 4.7071 3.29289C5.09762 3.68342 5.09762 4.31658 4.7071 4.70711L3.4142 6L11 6C11.5523 6 12 6.44772 12 7C12 7.55229 11.5523 8 11 8H3.41421L4.7071 9.29289Z" fill="#333333"/>
</svg>
