<svg width="15" height="17" viewBox="0 0 15 17" fill="none" xmlns="http://www.w3.org/2000/svg">
    <path d="M10.1231 -0.000488281H3.29523C2.29774 -0.000488281 1.48589 0.811925 1.48589 1.80885V8.49948H1.30917C0.906581 8.49948 0.580078 8.82566 0.580078 9.22861V13.6503C0.580078 14.0532 0.906546 14.3793 1.30917 14.3793H1.48589V15.1901C1.48589 16.1882 2.29774 16.9995 3.29523 16.9995H12.6116C13.6085 16.9995 14.4204 16.1881 14.4204 15.1901V4.28174L10.1231 -0.000488281ZM2.4928 10.0266C2.70647 9.99046 3.00681 9.96324 3.42996 9.96324C3.85759 9.96324 4.16237 10.0449 4.36716 10.2088C4.56278 10.3633 4.69479 10.6184 4.69479 10.9185C4.69479 11.2185 4.59476 11.4736 4.41275 11.6465C4.17601 11.8693 3.82592 11.9693 3.41638 11.9693C3.32524 11.9693 3.24354 11.9648 3.17965 11.956V13.0524H2.4928V10.0266ZM12.6116 15.8914H3.29523C2.909 15.8914 2.59449 15.5769 2.59449 15.1901V14.3793H11.2792C11.6819 14.3793 12.0084 14.0532 12.0084 13.6503V9.22861C12.0084 8.82566 11.6819 8.49948 11.2792 8.49948H2.59449V1.80885C2.59449 1.42318 2.90904 1.10867 3.29523 1.10867L9.70858 1.10197V3.47257C9.70858 4.165 10.2704 4.72735 10.9634 4.72735L13.2856 4.72068L13.3117 15.1901C13.3117 15.5769 12.9978 15.8914 12.6116 15.8914ZM5.13768 13.0385V10.0266C5.39243 9.98602 5.72447 9.96324 6.07488 9.96324C6.65722 9.96324 7.03485 10.0677 7.33075 10.2905C7.64918 10.5272 7.84921 10.9046 7.84921 11.4464C7.84921 12.0332 7.63553 12.4383 7.3396 12.6883C7.01673 12.9567 6.52525 13.084 5.92481 13.084C5.56524 13.084 5.31049 13.0612 5.13768 13.0385ZM10.1032 11.2553V11.8193H9.00201V13.0524H8.30599V9.98602H10.1804V10.5545H9.00201V11.2553H10.1032Z" fill="#FF2323"/>
</svg>
