<svg width="60" height="60" viewBox="0 0 60 60" fill="none" xmlns="http://www.w3.org/2000/svg">
    <path fill-rule="evenodd" clip-rule="evenodd" d="M0 9C0 4.02944 4.02944 0 9 0H51C55.9706 0 60 4.02944 60 9V36.998C60 36.9993 60 37.0007 60 37.002V51C60 55.9706 55.9706 60 51 60H9C4.02944 60 0 55.9706 0 51V44.0003C0 44.0001 0 43.9999 0 43.9997V9ZM4 44.8284V51C4 53.7614 6.23858 56 9 56H51C53.7614 56 56 53.7614 56 51V37.8284L51.0355 32.864C49.0829 30.9113 45.9171 30.9113 43.9645 32.864L39.8284 37L45.4142 42.5858C46.1953 43.3668 46.1953 44.6332 45.4142 45.4142C44.6332 46.1953 43.3668 46.1953 42.5858 45.4142L35.5873 38.4158C35.5868 38.4152 35.5863 38.4147 35.5858 38.4142C35.5853 38.4137 35.5848 38.4132 35.5842 38.4127L26.5355 29.364C24.5829 27.4113 21.4171 27.4113 19.4645 29.364L4 44.8284ZM37 34.1716L29.364 26.5355C25.8492 23.0208 20.1508 23.0208 16.636 26.5355L4 39.1716V9C4 6.23858 6.23858 4 9 4H51C53.7614 4 56 6.23858 56 9V32.1716L53.864 30.0355C50.3492 26.5208 44.6508 26.5208 41.136 30.0355L37 34.1716ZM35 16C35 14.8954 35.8954 14 37 14H37.035C38.1396 14 39.035 14.8954 39.035 16C39.035 17.1046 38.1396 18 37.035 18H37C35.8954 18 35 17.1046 35 16Z" fill="#333333"/>
</svg>
