<svg width="52" height="36" viewBox="0 0 52 36" fill="none" xmlns="http://www.w3.org/2000/svg">
    <path d="M12.48 35.712C9.6 35.712 7.232 35.072 5.376 33.792C3.52 32.512 2.144 30.848 1.248 28.8C0.416 26.752 0 24.608 0 22.368C0 18.912 0.8 15.68 2.4 12.672C4 9.6 5.952 6.976 8.256 4.8C10.624 2.56 12.96 0.960003 15.264 0L23.616 5.664C21.888 6.496 20.192 7.456 18.528 8.544C16.864 9.632 15.36 10.816 14.016 12.096C12.672 13.376 11.616 14.688 10.848 16.032L11.328 16.416C11.84 16.096 12.352 15.872 12.864 15.744C13.44 15.616 14.176 15.552 15.072 15.552C16.48 15.552 17.888 15.904 19.296 16.608C20.704 17.248 21.888 18.24 22.848 19.584C23.808 20.928 24.288 22.624 24.288 24.672C24.288 27.232 23.712 29.344 22.56 31.008C21.472 32.608 20.032 33.792 18.24 34.56C16.448 35.328 14.528 35.712 12.48 35.712ZM39.648 35.712C36.768 35.712 34.4 35.072 32.544 33.792C30.688 32.512 29.312 30.848 28.416 28.8C27.584 26.752 27.168 24.608 27.168 22.368C27.168 18.912 27.968 15.68 29.568 12.672C31.168 9.6 33.12 6.976 35.424 4.8C37.792 2.56 40.128 0.960003 42.432 0L50.784 5.664C49.056 6.496 47.36 7.456 45.696 8.544C44.032 9.632 42.528 10.816 41.184 12.096C39.84 13.376 38.784 14.688 38.016 16.032L38.496 16.416C39.008 16.096 39.52 15.872 40.032 15.744C40.608 15.616 41.344 15.552 42.24 15.552C43.648 15.552 45.056 15.904 46.464 16.608C47.872 17.248 49.056 18.24 50.016 19.584C50.976 20.928 51.456 22.624 51.456 24.672C51.456 27.232 50.88 29.344 49.728 31.008C48.64 32.608 47.2 33.792 45.408 34.56C43.616 35.328 41.696 35.712 39.648 35.712Z" fill="#DDDCE1"/>
</svg>
