<svg width="30" height="28" viewBox="0 0 30 28" fill="none" xmlns="http://www.w3.org/2000/svg">
    <path d="M13.8441 0.649385C14.2757 -0.216461 15.5111 -0.216462 15.9428 0.649383L19.4743 7.73335C19.645 8.07574 19.972 8.31333 20.3504 8.36986L28.1789 9.53946C29.1358 9.68242 29.5175 10.8573 28.8274 11.5354L23.1815 17.0832C22.9086 17.3513 22.7837 17.7357 22.8468 18.1131L24.1536 25.9199C24.3134 26.8741 23.3139 27.6002 22.4558 27.1534L15.4349 23.4982C15.0955 23.3215 14.6913 23.3215 14.352 23.4982L7.33106 27.1534C6.47292 27.6002 5.47347 26.8741 5.6332 25.9199L6.93999 18.1131C7.00315 17.7357 6.87825 17.3513 6.60536 17.0832L0.959406 11.5354C0.269324 10.8573 0.651079 9.68242 1.60793 9.53946L9.43648 8.36986C9.81486 8.31333 10.1419 8.07574 10.3126 7.73335L13.8441 0.649385Z" fill="#333333"/>
</svg>
