<svg width="29" height="28" viewBox="0 0 29 28" fill="none" xmlns="http://www.w3.org/2000/svg">
    <path d="M14.1119 0.872462C14.3594 0.375846 15.068 0.375847 15.3156 0.872461L18.8471 7.95642C19.0906 8.44483 19.557 8.78373 20.0968 8.86437L27.9253 10.034C28.4741 10.116 28.6931 10.7899 28.2973 11.1788L22.6514 16.7265C22.2621 17.109 22.0839 17.6574 22.174 18.1956L23.4808 26.0024C23.5724 26.5497 22.9992 26.9662 22.507 26.71L15.4861 23.0547C15.002 22.8027 14.4254 22.8027 13.9414 23.0547L6.92048 26.71C6.42828 26.9662 5.85504 26.5497 5.94665 26.0024L7.25344 18.1956C7.34354 17.6574 7.16537 17.109 6.77611 16.7265L1.13016 11.1788C0.734351 10.7899 0.953313 10.116 1.50212 10.034L9.33067 8.86437C9.87041 8.78373 10.3369 8.44483 10.5804 7.95642L14.1119 0.872462Z" stroke="#7E7E7E"/>
</svg>
